<svg width="393" height="439" viewBox="0 0 393 439" fill="none" xmlns="http://www.w3.org/2000/svg">
<path fill-rule="evenodd" clip-rule="evenodd" d="M179.233 1.40676C142.286 7.72576 110.733 36.5108 101.254 72.5448C95.8443 93.1118 96.7843 112.672 104.155 132.867C115.079 162.8 140.832 185.561 173.514 194.167C185.251 197.258 207.215 197.258 218.952 194.167C238.478 189.025 254.715 179.541 267.851 165.606C299.053 132.506 303.484 83.1018 278.692 44.7428C257.524 11.9908 218.01 -5.22624 179.233 1.40676ZM181.233 226.973C162.994 228.952 147.942 233.244 130.654 241.394L119.576 246.617L118.404 253.711C116.498 265.258 116.761 267.8 119.983 268.951C128.214 271.89 136.12 278.876 139.072 285.82C140.148 288.35 144.948 309.994 149.738 333.919C159.398 382.159 159.598 384.565 154.762 394.45C151.929 400.24 145.839 406.188 140.394 408.484C138.557 409.258 135.755 410.985 134.168 412.321C128.448 417.133 122.095 416.372 117.321 410.304C113.264 405.146 115.612 397.391 122.173 394.277C125.454 392.72 126.017 392.718 130.217 394.245C134.483 395.796 134.871 395.786 137.233 394.061C141.432 390.994 144.233 385.994 144.233 381.565C144.233 374.268 127.367 292.871 125.092 289.191C121.128 282.777 110.105 279.865 103.235 283.418C96.2523 287.029 95.7623 288.514 86.6743 333.598C82.0373 356.6 78.2413 377.841 78.2383 380.801C78.2323 386.8 80.5573 391.591 84.8323 394.392C87.2073 395.948 87.6923 395.953 91.4313 394.456C99.0953 391.39 106.233 396.194 106.233 404.419C106.233 412.45 98.1413 417.991 91.4593 414.536C89.7543 413.654 88.0803 412.481 87.7393 411.928C87.3973 411.375 84.7173 409.787 81.7823 408.399C75.5703 405.46 68.8993 398.651 66.3413 392.639C62.5433 383.713 62.6433 382.72 72.1473 334.964C77.0653 310.253 81.9903 287.997 83.0913 285.507C85.6633 279.694 93.0273 272.545 98.6603 270.394L103.066 268.711L103.399 262.813C103.583 259.569 103.585 256.916 103.404 256.917C103.085 256.919 72.8523 274.153 47.2333 288.937C26.1063 301.129 19.4723 307.308 11.8233 321.919C2.88634 338.991 0.415342 355.248 0.0943422 399.089C-0.164658 434.448 -0.288658 433.563 5.36134 436.485C9.53634 438.644 382.93 438.644 387.105 436.485C392.755 433.563 392.631 434.448 392.372 399.089C392.051 355.216 390.267 342.651 381.775 324.419C377.073 314.325 369.802 304.963 362.571 299.693C359.91 297.753 352.783 293.312 346.733 289.824C308.827 267.97 289.7 257.122 289.471 257.349C289.328 257.492 289.716 261.166 290.334 265.514C291.629 274.622 290.916 292.466 288.895 301.547L287.532 307.676L292.539 312.518C299.916 319.652 302.693 326.337 302.676 336.919C302.659 346.845 300.702 352.18 294.601 358.933C287.064 367.276 276.016 371.703 265.892 370.436C243.154 367.592 229.431 343.756 238.687 323.185C243.915 311.566 254.379 304.304 267.484 303.198L274.234 302.629L275.391 298.524C277.246 291.945 276.849 265.92 274.737 255.6L272.932 246.78L261.807 241.391C237.684 229.706 206.863 224.19 181.233 226.973Z" fill="black"/>
</svg>
