<svg width="245" height="312" viewBox="0 0 245 312" fill="none" xmlns="http://www.w3.org/2000/svg">
<path fill-rule="evenodd" clip-rule="evenodd" d="M96.1092 1.44179C77.5602 5.46679 63.9922 17.4198 62.3772 31.1608C61.7102 36.8378 61.6822 36.8768 56.0932 40.0248C26.1032 56.9118 9.89321 87.3998 9.90421 126.901C9.90621 134.326 10.3732 142.825 10.9432 145.787C12.3072 152.886 12.3052 152.901 9.91221 152.901C3.56921 152.901 0.0322066 159.536 0.000206551 171.494C-0.0237934 180.253 2.04321 187.924 6.45721 195.455C8.87521 199.581 18.3222 208.901 20.0862 208.901C20.5772 208.901 20.9792 210.813 20.9792 213.151C20.9812 218.994 23.4542 232.26 25.7832 238.923C33.7242 261.639 50.8812 281.705 77.6152 299.542C92.5792 309.526 97.7222 311.37 110.478 311.323C123.301 311.275 128.59 309.38 143.341 299.553C154.077 292.401 170.399 278.994 173.148 275.069C173.88 274.024 176.053 272.839 177.978 272.435C179.903 272.031 184.309 270.324 187.768 268.643L194.059 265.587L197.331 268.759C200.449 271.781 200.583 272.214 200.168 277.949L199.733 283.967L211.605 296.019C218.135 302.647 224.693 308.707 226.178 309.485C232.85 312.983 241.365 309.529 243.883 302.304C246.183 295.705 244.971 293.563 230.929 279.401L218.039 266.401L211.972 266.312C206.549 266.233 205.553 265.881 202.575 262.995L199.243 259.766L202.029 254.583C207.868 243.719 207.984 231.814 202.361 220.684C200.021 216.052 199.116 208.901 200.87 208.901C202.634 208.901 212.081 199.581 214.499 195.455C218.913 187.924 220.98 180.253 220.956 171.494C220.923 159.442 217.392 152.901 210.919 152.901C208.975 152.901 208.804 152.534 209.402 149.651C212.497 134.739 212.323 116.167 208.945 100.901C202.595 72.2038 189.607 53.9168 165.6 39.8738C159.624 36.3778 159.56 36.2918 158.481 30.3268C157.183 23.1458 154.55 18.6048 148.401 12.9368C136.711 2.16078 114.895 -2.63421 96.1092 1.44179ZM124.759 9.41179C133.005 11.3548 138.199 14.0918 144.073 19.5868C148.416 23.6488 152.01 30.2018 150.644 31.5688C150.35 31.8618 147.39 31.1608 144.066 30.0108C124.159 23.1208 97.9872 23.2558 77.1182 30.3528C71.2632 32.3448 69.9782 32.5168 69.9782 31.3088C69.9782 25.7668 78.4442 16.3698 86.8022 12.6318C97.4342 7.87778 112.746 6.57879 124.759 9.41179ZM136.978 35.9118C160.409 42.7538 181.989 58.3168 191.336 75.1118C200.345 91.2988 203.494 104.872 203.351 126.901C203.291 135.976 202.831 144.686 202.327 146.257L201.411 149.113L198.515 143.757C194.185 135.749 185.754 128.167 174.88 122.505C150.375 109.745 140.051 99.5138 138.119 86.0778C136.954 77.9728 131.265 77.7398 129.685 85.7318C127.355 97.5138 106.958 110.764 72.6952 122.755C51.7932 130.069 44.2842 134.569 30.3852 148.106L21.2912 156.962L19.4322 149.182C16.7562 137.981 16.9262 115.68 19.7812 103.401C26.7172 73.5678 41.2222 55.3448 68.4782 42.2238C83.7912 34.8518 93.8032 32.9028 113.978 33.3658C126.204 33.6468 131.062 34.1848 136.978 35.9118ZM135.735 101.651C140.702 110.414 150.814 118.49 169.358 128.503C175.343 131.735 182.189 136.095 184.572 138.192C189.992 142.963 194.977 152.865 196.425 161.737C197.412 167.784 197.748 168.429 200.047 168.698C202.041 168.932 203.105 168.186 205.034 165.198C208.172 160.341 211.587 159.622 212.693 163.586C214.062 168.494 213.218 179.186 210.991 185.138C208.591 191.55 201.928 199.536 196.567 202.423C194.587 203.489 192.714 205.158 192.405 206.132C191.728 208.265 191.037 208.331 188.437 206.51C185.469 204.431 176.167 201.899 171.546 201.913C158.029 201.952 145.478 210.061 139.249 222.777C136.867 227.641 136.494 229.617 136.487 237.401C136.479 245.103 136.868 247.233 139.182 252.171C142.831 259.958 150.321 267.095 157.949 270.053C161.265 271.339 163.978 272.691 163.978 273.057C163.978 274.35 149.62 286.09 140.718 292.076C125.956 302.002 122.22 303.401 110.478 303.401C98.9302 303.401 94.9512 301.96 81.3432 292.853C48.0532 270.574 29.0282 241.602 28.9632 213.086C28.9452 205.43 28.7852 205.09 23.7572 202.035C18.2242 198.673 12.3172 191.423 9.94521 185.083C7.73821 179.185 6.90021 168.472 8.26321 163.586C9.36521 159.638 12.7832 160.339 15.8912 165.151C19.1442 170.187 21.8702 170.107 25.5022 164.866C29.9262 158.483 45.9932 143.762 53.0252 139.649C59.4092 135.915 64.3172 133.876 81.4782 127.829C101.635 120.727 120.235 110.494 128.431 101.998C130.605 99.7448 132.66 97.9008 132.997 97.9008C133.334 97.9008 134.566 99.5888 135.735 101.651ZM56.9232 156.351C46.0362 160.362 41.5572 164.337 44.5512 167.332C46.6032 169.383 48.1582 169.311 52.1712 166.979C53.9902 165.922 57.7282 164.342 60.4782 163.468C65.1312 161.989 66.2762 162.012 76.9742 163.793C89.0412 165.803 91.9782 165.45 91.9782 161.988C91.9782 159.015 89.9842 158.117 79.7122 156.464C68.1632 154.605 61.7492 154.574 56.9232 156.351ZM140.043 156.506C131.019 158.065 128.978 159.077 128.978 161.988C128.978 165.467 131.909 165.789 144.671 163.713L156.864 161.73L165.272 165.341C174.536 169.32 177.272 169.245 176.782 165.023C176.534 162.888 175.187 161.753 169.52 158.91C161.278 154.774 153.656 154.153 140.043 156.506ZM54.2282 180.54C53.5412 180.83 52.9782 182.348 52.9782 183.912C52.9782 186.447 53.5822 186.983 58.5162 188.829C68.6042 192.604 82.9782 190.94 82.9782 185.998C82.9782 182.64 80.7252 181.762 75.1652 182.954C71.1542 183.815 68.9902 183.734 64.7872 182.566C61.8672 181.755 58.5782 180.848 57.4782 180.552C56.3782 180.255 54.9162 180.25 54.2282 180.54ZM161.978 180.89C158.708 182.978 150.384 184 145.52 182.91C140.316 181.744 137.978 182.671 137.978 185.901C137.978 188.954 140.861 190.225 148.784 190.667C154.978 191.013 157.599 190.674 162.228 188.927C167.357 186.992 167.978 186.452 167.978 183.936C167.978 180.343 165.112 178.888 161.978 180.89ZM183.606 212.701C189.046 215.49 195.44 222.874 197.403 228.635C203.342 246.064 190.042 264.86 171.748 264.891C156.992 264.916 145.359 254.516 144.216 240.276C143.219 227.851 148.395 218.374 159.154 212.932C164.881 210.035 166.139 209.773 172.478 210.159C176.925 210.429 180.984 211.357 183.606 212.701ZM100.607 223.415C99.7112 224.311 98.9782 225.376 98.9782 225.781C98.9782 227.759 101.928 229.937 106.087 231.03C114.065 233.125 123.203 229.258 121.397 224.551C120.549 222.341 118.421 221.851 114.942 223.064C111.998 224.09 107.38 223.825 103.857 222.429C102.937 222.064 101.531 222.491 100.607 223.415ZM173.645 224.568C172.202 226.011 173.02 228.901 174.871 228.901C177.157 228.901 178.254 226.577 176.7 225.023C175.416 223.739 174.596 223.617 173.645 224.568ZM163.228 233.563C161.46 234.277 161.675 238.405 163.562 239.971C166.679 242.558 170.586 237.543 167.938 234.353C166.71 232.873 165.458 232.663 163.228 233.563ZM176.363 238.666C174.027 240.205 173.813 243.736 175.927 245.85C178.508 248.431 180.434 248.445 182.978 245.901C185.386 243.493 185.425 242.984 183.421 240.124C181.884 237.929 178.532 237.237 176.363 238.666ZM84.6452 259.568C84.2782 259.934 83.9782 261.275 83.9782 262.547C83.9782 265.406 89.1452 268.256 98.1972 270.39C109.642 273.089 123.629 271.67 133.071 266.854C136.467 265.121 137.052 264.373 136.789 262.099C136.545 259.978 135.877 259.332 133.668 259.079C132.122 258.902 130.322 259.193 129.668 259.727C127.143 261.786 117.29 263.901 110.223 263.901C104.99 263.901 100.655 263.171 95.3832 261.401C87.5782 258.781 85.7452 258.468 84.6452 259.568ZM225.135 284.598C236.873 296.191 238.566 298.913 235.778 301.701C232.611 304.868 229.569 303.105 218.053 291.433C210.037 283.309 206.92 279.495 207.359 278.352C207.699 277.464 207.978 276.31 207.978 275.787C207.978 275.02 211.057 273.249 212.885 272.964C213.109 272.93 218.622 278.165 225.135 284.598Z" fill="black"/>
</svg>
